# xmcd CD database file
#
# Track frame offsets:
#	150
#	19192
#	39530
#
# Disc length: 780 seconds
#
# Revision: 3
# Processed by: cddbd v1.5.1PL0 Copyright (c) Steve Scherf et al.
# Submitted via: CDex 1.51
#
DISCID=1c030a03
DTITLE=JUN SKY WALKERS - さらば愛しき危険たちよ
DYEAR=1995
DGENRE=J-POP
TTITLE0=さらば愛しき危険たちよ
TTITLE1=素顔のままで
TTITLE2=さらば愛しき危険たちよ(inst)
EXTD=Produced by Peter Collins (for Jill Music Inc.) with\nIndigo Girls. YEAR: 1995
EXTT0=(Emily Sailiers) EMI/Virgin Records
EXTT1=(Amy Ray)  EMI/Virgin Records
EXTT2=(Emily Sailiers) EMI/Virgin Records
PLAYORDER=
